PathFileType	4	(X/Y/Z)	/Users/niels/Desktop/University/Third Semester/Perception and Action/Exam/Gymnastics Motion Tracking/Code for Gym Tracking/Analyzed Data/Webcam_Backflip/id2_1_pure_Sports2D/id2_1_pure_Sports2D_px_person00.trc
DataRate	CameraRate	NumFrames	NumMarkers	Units	OrigDataRate	OrigDataStartFrame	OrigNumFrames
29.875	29.875	10	22	m	29.875	120	240
Frame#	Time	Hip			RHip			RKnee			RAnkle			RBigToe			RSmallToe			RHeel			LHip			LKnee			LAnkle			LBigToe			LSmallToe			LHeel			Neck			Head			Nose			RShoulder			RElbow			RWrist			LShoulder			LElbow			LWrist		
		X1	Y1	Z1	X2	Y2	Z2	X3	Y3	Z3	X4	Y4	Z4	X5	Y5	Z5	X6	Y6	Z6	X7	Y7	Z7	X8	Y8	Z8	X9	Y9	Z9	X10	Y10	Z10	X11	Y11	Z11	X12	Y12	Z12	X13	Y13	Z13	X14	Y14	Z14	X15	Y15	Z15	X16	Y16	Z16	X17	Y17	Z17	X18	Y18	Z18	X19	Y19	Z19	X20	Y20	Z20	X21	Y21	Z21	X22	Y22	Z22
120	4.01673640167364	0.9475230488713009	-0.5599493935830674	0.0	0.949769902199769	-0.560383940008482	0.0	0.9585430896734956	-0.6737862834906688	0.0	0.9375694440876577	-0.7944809967337633	0.0	0.9695897310442333	-0.8121921820327922	0.0	0.9602975339271016	-0.8180893081514565	0.0	0.9280897191045966	-0.8124891525410672	0.0	0.9513010280738542	-0.5596551630961857	0.0	0.9588438380626051	-0.673292898004045	0.0	0.9423790268474677	-0.7878781219808576	0.0	0.9812504108829039	-0.8069974284225447	0.0	0.9760725894376826	-0.8015748709299747	0.0	0.9277543690623566	-0.801557018994846	0.0	0.9558014579065423	-0.40470672421713877	0.0	0.9868947410170242	-0.32788337345265045	0.0	0.9865006007041524	-0.3684349088485443	0.0	0.9472789885758875	-0.40890199140419664	0.0	0.9534412278379852	-0.3259429753978844	0.0	0.9683573485923025	-0.2612427380352791	0.0	0.9534117176072207	-0.4108874697358416	0.0	0.9620037703892532	-0.33358102553568414	0.0	0.9712504948931577	-0.2687550566689011	0.0
121	4.05020920502092	0.9466389229560366	-0.5610135482958384	0.0	0.948681685862042	-0.5611794208314005	0.0	0.958723451390223	-0.6749625259514852	0.0	0.9375462192980752	-0.7948598989455713	0.0	0.9700185178670317	-0.8132724312498487	0.0	0.9602834193065504	-0.8192149879202367	0.0	0.9277674166238956	-0.8130566002321622	0.0	0.9505728197900394	-0.5605892758140164	0.0	0.9591633708776578	-0.6746641809381017	0.0	0.9428820813934671	-0.7886558335263295	0.0	0.9818879609977765	-0.8079971950765258	0.0	0.9772928686680274	-0.8030390303318187	0.0	0.9281512743883888	-0.8026438014977072	0.0	0.955440949136373	-0.40557564651049755	0.0	0.9878476325529928	-0.32975357400760485	0.0	0.9854667044324119	-0.37041222774392524	0.0	0.9463855713531706	-0.40973231173452274	0.0	0.9529018957481301	-0.32648880389213963	0.0	0.9681419391454611	-0.26169382393637086	0.0	0.9533931183594807	-0.4117448978302105	0.0	0.9627806077245502	-0.33378308930738176	0.0	0.9717231113861995	-0.26931333352396525	0.0
122	4.083682008368201	0.945930668237261	-0.5619776500213985	0.0	0.9476645569847509	-0.5618514654280568	0.0	0.9587147693933384	-0.6760848688636801	0.0	0.9374365588185586	-0.7953202898110984	0.0	0.9702442704785498	-0.8143717867781839	0.0	0.9601715480742333	-0.8202238546576647	0.0	0.9273827840920379	-0.8136345650827866	0.0	0.9499695615291549	-0.5614300999729157	0.0	0.9594613849672989	-0.6759477874139647	0.0	0.9431940965126941	-0.7894450672516877	0.0	0.9823109934228156	-0.8089402627681579	0.0	0.9781947025232045	-0.8043891556274865	0.0	0.9283584038033432	-0.8037044587109373	0.0	0.9551977217297231	-0.4065536585439656	0.0	0.9886976994518106	-0.3316118925387932	0.0	0.9845580311538731	-0.3723491145719216	0.0	0.9455226021602867	-0.4106910920097985	0.0	0.9523504898026673	-0.32739538597272594	0.0	0.9679615096185819	-0.26231974566437866	0.0	0.9534563287429815	-0.4128666112886074	0.0	0.9633918656483522	-0.3343039203219902	0.0	0.9720865312851883	-0.27004284678577156	0.0
123	4.117154811715481	0.9453019166348013	-0.5627608086725167	0.0	0.9467731640478094	-0.5623017066826367	0.0	0.9584709399010554	-0.6769325617458768	0.0	0.9372444746211567	-0.7957910687051185	0.0	0.9702361234854892	-0.8152983719435423	0.0	0.9599941448652801	-0.820933881524665	0.0	0.9270010762042389	-0.8141411585288905	0.0	0.9493920225662649	-0.5620544843996035	0.0	0.9595727789564232	-0.6768978581541298	0.0	0.9432026979096874	-0.7901946948646035	0.0	0.9823799249165357	-0.8097711646995528	0.0	0.9785070512991366	-0.8054836772558178	0.0	0.9282330529747416	-0.8046366690948126	0.0	0.9550438676343276	-0.4074591148449978	0.0	0.9893381448092232	-0.3331413299651095	0.0	0.9838187464751633	-0.3739564864469018	0.0	0.9448549863602819	-0.4115929043216032	0.0	0.9518683623079897	-0.32842411305086017	0.0	0.9678509971289527	-0.2630135950606206	0.0	0.9534290703874727	-0.41406778630567154	0.0	0.963634407855181	-0.33498963604637716	0.0	0.9722553704548625	-0.2707770496947956	0.0
124	4.150627615062761	0.9446152461132591	-0.5634188015374731	0.0	0.9459836223261848	-0.5625943024439016	0.0	0.9580061565116298	-0.677453801004905	0.0	0.9369846369079065	-0.796238358602318	0.0	0.9700436160672425	-0.8160003010955943	0.0	0.959799679910898	-0.8213546344260606	0.0	0.9266380260302683	-0.814595346087646	0.0	0.948722656644651	-0.5624839308637837	0.0	0.959371232546928	-0.6774668496947022	0.0	0.9428840242650663	-0.7908588192715374	0.0	0.9820872971462584	-0.8105232523144699	0.0	0.9781772859014253	-0.8063331562417043	0.0	0.9277394226529044	-0.8053924217341607	0.0	0.9549176933959137	-0.40819803249622627	0.0	0.9897034894466086	-0.33425720426821376	0.0	0.9832296037528028	-0.37518051404322694	0.0	0.9444755653282942	-0.41233922544894447	0.0	0.9514816311535131	-0.3293565639565777	0.0	0.9677990665075183	-0.26364704356958185	0.0	0.95322468917974	-0.4152199453233679	0.0	0.9634670884320775	-0.3356932117838796	0.0	0.9722397523334263	-0.27134038385218107	0.0
125	4.184100418410042	0.9437858658484886	-0.5640187544933386	0.0	0.9451884814772413	-0.5628657045927594	0.0	0.9573681028066892	-0.6777479904449345	0.0	0.9366812753781762	-0.7966663998380966	0.0	0.9697775168404322	-0.8165204704138412	0.0	0.9596581894162614	-0.8216094431900789	0.0	0.9262866459004879	-0.8150937861810063	0.0	0.9479106821725217	-0.5628361966485709	0.0	0.958829468269931	-0.6777693634383651	0.0	0.9422945790742913	-0.791414943192433	0.0	0.9815582500540618	-0.8112336783428961	0.0	0.9773979871002598	-0.8069902809201034	0.0	0.9269105316403424	-0.8059717995701473	0.0	0.9547554309265813	-0.40881859850251046	0.0	0.9897934080826196	-0.33507537299098894	0.0	0.9827881778414866	-0.37617738753206054	0.0	0.9443492347133536	-0.4129761670624033	0.0	0.9511961772884596	-0.33010896719666055	0.0	0.9677970425842218	-0.2641997115693559	0.0	0.9528513181652066	-0.41628250954521706	0.0	0.9629954449207919	-0.33635595019059683	0.0	0.9721211612778222	-0.27174784067209534	0.0
126	4.217573221757322	0.9428296822133806	-0.5645266705352917	0.0	0.9442648921207931	-0.563178965864489	0.0	0.9565891856386188	-0.6779265864261793	0.0	0.9363544028358144	-0.7970204159483952	0.0	0.9695758957639983	-0.8168507424464047	0.0	0.9596314864072842	-0.8217632981021306	0.0	0.9259246086420297	-0.8156353030331869	0.0	0.9470140165582214	-0.5631800425440202	0.0	0.9580222207789987	-0.6779332288640002	0.0	0.941564863735978	-0.791799735556241	0.0	0.9810098540740378	-0.8118350980664049	0.0	0.9765211854737186	-0.8074231026210219	0.0	0.9258292837887765	-0.8063403121186348	0.0	0.9545299880790991	-0.4094120518538824	0.0	0.989641441029854	-0.3357421195082199	0.0	0.9825317408909466	-0.37711976453591367	0.0	0.9443253289967853	-0.41359415435314884	0.0	0.9510075832546392	-0.3306579370345515	0.0	0.9678594260710636	-0.26466463558336967	0.0	0.9523894171171038	-0.4172300578336865	0.0	0.9624110225085205	-0.3369483223432646	0.0	0.9719898595104538	-0.2721195540630527	0.0
127	4.2510460251046025	0.9418272703969376	-0.564816868816102	0.0	0.9431592541942113	-0.5634451980284628	0.0	0.9556842546347482	-0.6780056011692607	0.0	0.9360050122909616	-0.7971640616916716	0.0	0.9695500566347475	-0.8168893966094611	0.0	0.9597265675776437	-0.821774957000602	0.0	0.9255114452378432	-0.8160357798510652	0.0	0.9461565541824053	-0.5634419262281334	0.0	0.9571032417920092	-0.6779890949059115	0.0	0.9408795511387907	-0.7918874114267159	0.0	0.9806451012604052	-0.8121533691548559	0.0	0.9758929144473689	-0.8075189339251657	0.0	0.9246776334165695	-0.8064009135802609	0.0	0.9542615133529935	-0.4099899768927617	0.0	0.9892764630825223	-0.3363161052708728	0.0	0.9824775116391928	-0.3780227990039176	0.0	0.9442212481204705	-0.41420248382491104	0.0	0.9508856088950512	-0.3309717529308251	0.0	0.9679799249048789	-0.2649662986727499	0.0	0.9519613811897061	-0.41799944326054744	0.0	0.9619000569973651	-0.3374177236651215	0.0	0.9718919888144443	-0.27252180289684586	0.0
128	4.2845188284518825	0.9408387013971135	-0.5647674206826329	0.0	0.9418998401654537	-0.5634813089858194	0.0	0.9546784188568785	-0.6779180567688633	0.0	0.9356544892025415	-0.796998138311551	0.0	0.9697488590640898	-0.8165624723429272	0.0	0.9599062612901053	-0.8215757283933103	0.0	0.9250370077435981	-0.8160881753487916	0.0	0.9454289994979588	-0.5634569920973874	0.0	0.9562343131650016	-0.677884191213988	0.0	0.9404117346226192	-0.791601644173659	0.0	0.9805337809673021	-0.8120329131268482	0.0	0.9756873958901241	-0.8072107744170266	0.0	0.9237088921790436	-0.806107382174577	0.0	0.9539927868141246	-0.41047181617485257	0.0	0.9887787234549771	-0.33677892938065473	0.0	0.9825831032551156	-0.3787589310251265	0.0	0.9439168240771388	-0.4147130339252024	0.0	0.9507931006878404	-0.33104917638255016	0.0	0.9681052800684193	-0.26505886186959954	0.0	0.9516936407605671	-0.41851364348520437	0.0	0.961576585076607	-0.337721962147759	0.0	0.9718332547054469	-0.2729552631687806	0.0
129	4.3179916317991625	0.9398528083956271	-0.5643172869929761	0.0	0.940567272692174	-0.5631453431613596	0.0	0.9536122804189627	-0.6776145421256113	0.0	0.9353877065507031	-0.7965641783796289	0.0	0.9701684854675521	-0.8159455827471371	0.0	0.9601529900611533	-0.8211502094393873	0.0	0.9245775831271176	-0.8157695872028239	0.0	0.9448102718559068	-0.563103570442347	0.0	0.955466466774194	-0.6775857148356886	0.0	0.9402291099632767	-0.7910265200867015	0.0	0.9806125190927224	-0.8114846716668991	0.0	0.9758751975379719	-0.8065874981297255	0.0	0.9231130286568532	-0.8055788078310843	0.0	0.9537721179730977	-0.41074126204744954	0.0	0.9883256257377161	-0.33712544535371675	0.0	0.9827705142624552	-0.3791953850700644	0.0	0.9434132176337001	-0.41499236505470555	0.0	0.9507184415056718	-0.3309390942198911	0.0	0.9681508744784237	-0.2649912815207306	0.0	0.9516513372781272	-0.41872776901380343	0.0	0.9614796237266996	-0.33784856665374297	0.0	0.9718053640958394	-0.2733990104280412	0.0
